<svg height="50px" width="50px" id="ed9b1a2c-6c97-4b31-b0e2-199faaed5a22" data-name="Layer 1" xmlns="http://www.w3.org/2000/svg" viewBox="0 0 50 50"><title>linkedin</title><path d="M44.05,0H6A6,6,0,0,0,0,6v38.1a6,6,0,0,0,6,6h38.1a6,6,0,0,0,6-6V6A6,6,0,0,0,44.05,0ZM15.48,19.05V41.67H8.33V19.05ZM8.33,12.46c0-1.66,1.43-2.94,3.57-2.94s3.49,1.28,3.58,2.94-1.34,3-3.58,3S8.33,14.13,8.33,12.46ZM41.67,41.67H34.52V29.76c0-2.38-1.19-4.76-4.16-4.81h-.1c-2.88,0-4.07,2.45-4.07,4.81V41.67H19.05V19.05h7.14V22.1a8.92,8.92,0,0,1,6.92-3.05c4.72,0,8.56,3.25,8.56,9.83Z" fill="#fff"/></svg>