<svg height="50px" width="50px" id="b364479c-f206-4639-9f67-e489c38ecfea" data-name="Layer 1" xmlns="http://www.w3.org/2000/svg" viewBox="0 0 50 50"><title>xing</title><path d="M41.67,0H8.33A8.33,8.33,0,0,0,0,8.33V41.67A8.33,8.33,0,0,0,8.33,50H41.67A8.33,8.33,0,0,0,50,41.67V8.33A8.33,8.33,0,0,0,41.67,0ZM15,32.29H10.09a1,1,0,0,1-.92-1.54l5.41-9.92L12.08,15a1,1,0,0,1,1-1.45h5a1,1,0,0,1,1,.63l2.86,6.66-6,10.92A1,1,0,0,1,15,32.29ZM39.83,8.82,29.17,29.17l6.46,12a1,1,0,0,1-.92,1.54h-6a1,1,0,0,1-.92-.55l-7-13L32,7.85a1,1,0,0,1,.92-.56h6A1,1,0,0,1,39.83,8.82Z" fill="#fff"/></svg>